<svg width="1458" height="965" viewBox="0 0 1458 965" fill="none" xmlns="http://www.w3.org/2000/svg">
<rect width="1458" height="965" fill="#1E1E1E"/>
<rect width="1458" height="965" fill="white"/>
<rect x="912" y="427" width="42" height="140" fill="#D9D9D9"/>
<rect x="142" y="622" width="1089" height="160" fill="#D9D9D9"/>
<rect x="709" y="778" width="83" height="37" fill="#D9D9D9"/>
<rect x="684" y="809" width="129" height="43" fill="#D9D9D9"/>
<rect x="188" y="574" width="740" height="51" fill="#D9D9D9"/>
<rect x="278" y="523" width="198" height="78" rx="39" fill="#D9D9D9"/>
<rect x="357" y="445" width="571" height="160" fill="#D9D9D9"/>
<rect x="298" y="520.423" width="123" height="31" transform="rotate(-24.7132 298 520.423)" fill="#D9D9D9"/>
<rect x="593" y="291" width="335" height="188" fill="#D9D9D9"/>
<rect x="661" y="220" width="255" height="110" fill="#D9D9D9"/>
<rect x="914" y="160" width="151" height="211" fill="#D9D9D9"/>
<rect x="1033" y="176" width="202" height="200" fill="#D9D9D9"/>
<rect x="910" y="454" width="75" height="88" fill="#D9D9D9"/>
<rect x="937" y="555.49" width="48.1232" height="18" transform="rotate(-39.3142 937 555.49)" fill="#D9D9D9"/>
<rect x="946.419" y="423" width="60" height="29" transform="rotate(42.0371 946.419 423)" fill="#D9D9D9"/>
<rect x="974" y="462" width="45" height="67" fill="#D9D9D9"/>
<rect x="1013" y="474" width="10" height="40" rx="5" fill="#D9D9D9"/>
<ellipse cx="1018.99" cy="493.852" rx="6" ry="28.5" transform="rotate(-4.03633 1018.99 493.852)" fill="#D9D9D9"/>
<rect x="275" y="569" width="11" height="10" fill="#D9D9D9"/>
<ellipse cx="307.756" cy="526.721" rx="28.5" ry="12.3042" transform="rotate(-39.9033 307.756 526.721)" fill="#D9D9D9"/>
<path d="M790 814.292V781.261H1230V622.5H930V566L954.5 565.5C974.484 552.219 981.277 543.697 987.5 525.5H1015.5C1017.04 521.016 1019.86 513.409 1020.75 509.5M790 814.292H773M790 814.292H808.5V819M710 813.5V780.5L223.5 781M710 813.5L725 813.68M710 813.5H689V818.5M231.5 780.992L142 781V623H185.5V575H273.5M273.5 575C276.651 560.671 280.554 549.106 285.995 539.5C295.132 524.724 303.077 518.969 316 510.616C326.573 504.75 339.65 499.807 356 495M273.5 575H299M356 495V444.5H591V291L661.5 290.5V220H914V165H1061.5V175.5L1232 176L1231 371H1093H1076.5H930V427H954.5C975.06 442.271 981.881 451.019 987.5 467H1015.5C1016.8 471.324 1017.88 475.285 1018.72 479M356 495V548.5M744 813.856H753.5M993.5 498.5V489M1020.75 488.5C1021.09 492.449 1021.1 496.242 1020.75 500.079M808.5 842V847H689V842" stroke="black" stroke-width="10"/>
<path d="M190.5 780V672M190.5 672H201H222H238.5M190.5 672L161.5 672.005V696.5M1182.5 677L1082.5 676.455M1182.5 677H1203V684.5H1207.5M1182.5 677V714.5M1182.5 779V714.5M712 781.5V681.5M782.5 779.486L781.5 681.5M918 675.558V778.5M918 675.558L985.5 675.926M918 675.558L836 675.112M1044 676.245V779M1044 676.245L1061.5 676.341M1044 676.245L1007 676.044M815.5 675L788 674.85H781.5V681.5M726 681.5H712M781.5 681.5H761.5M600 673.821L589 673.761M620 673.931H712V681.5M535 673.465L524 673.404M555.5 673.577L589 673.761M404 672.746L387.5 672.656M424.5 672.859L524 673.404M269 672.005L268 672H238.5M289.5 672.118L387.5 672.656M238.5 780V672M387.5 672.656L389 778M524 673.404V700.5M524 780V761.5M524 720V761.5M524 761.5H572V779M589 673.761V700.5M589 780V720M161.5 696.5H157.5M161.5 696.5V711H189.5V726H159M149 696.5H146M149 726H146M1219.5 684.5H1225.5M1182.5 714.5H1207.5M1219.5 714.5H1226.5M218.5 600.5H300V570.5H323.5C323.523 566.389 324.456 562.859 326 559.85M357 546C355.245 544.37 347.879 544.502 340.5 547.473M359.5 625V573H389.5M590 573H559M559 573V625M559 573H534M534 573V625M534 573H479.5M479.5 573V625M479.5 573H462M462 573V599.5M462 573H389.5M462 625V599.5M432.5 625V608M462 599.5H432.5V608M432.5 608H400V625M389.5 573V625M351 549.5H382.5M393 549.5H426.5M460 549.5H426.5M470.5 549.5H504.75M539 549.5H504.75M548.5 549.5H590M426.5 549.5V504.5M426.5 445V504.5M398 550V519.5V507.5V504.5M398 445V452V464V504.5M398 504.5H426.5M504.75 549.5V445M592 319H602.5M618 319H632.5M647.5 319H663.5V302M663.5 292.5V302M662 625V618.5V562.5M662 550V562.5M662 532V461M662 443V430.5H819V457L800.5 470.5V522L819 535.5V562.5H815.5M804.5 562.5H815.5M815.5 562.5H784.5M815.5 562.5C816.35 567.478 817.423 571.47 819 574.668M662 562.5H784.5M784.5 625V562.5M841.5 625V586.5C835.848 585.919 831.454 584.957 828 583.395M663.5 302H679M688 302H731.5M741 302H755M764.5 302H807M816.5 302H842M842 302V221.5M842 302V311M842 323.5V331H978M993.5 331H1059.5M912 370V363M912 338V253.5M912 223V253.5M1109 176V194M1109 298V290M1109 290H1114.5M1109 290V194M1125.5 290H1146M1146 290V300M1146 290V255.25M1146 220.5V255.25M1146 201V194M1146 176V194M1146 194H1109M1146 316V324H1230.5M1146 255.25H1155M1169 255.25H1230.5M1128 369V324M1109 369V317.5M190.5 625H279.5M301.5 625H541.5M554 625H566.5M578 625H593M600 625H593M654 625H673.5H683.5M734 625H710H694M745 625H760.5M771 625H870M920 625H1231M593 625V570M593 552.5V445M925.5 369H908M872.5 369H804.5M1059.5 179V185M1059.5 204.5V253.5M1059.5 336.5V253.5M912 253.5H1059.5" stroke="black" stroke-width="6"/>
<path d="M701 822H690C688.343 822 687 823.343 687 825V829.116V836C687 837.657 688.343 839 690 839H701C702.657 839 704 837.657 704 836V825C704 823.343 702.657 822 701 822Z" stroke="black" stroke-width="3"/>
<path d="M688.619 828.326H692.262V829.709V831.093H695.095V833.86H698.333V836.233H701.571" stroke="black" stroke-width="2"/>
<path d="M806 822H795C793.343 822 792 823.343 792 825V829.116V836C792 837.657 793.343 839 795 839H806C807.657 839 809 837.657 809 836V825C809 823.343 807.657 822 806 822Z" stroke="black" stroke-width="3"/>
<path d="M793.619 828.326H797.262V829.709V831.093H800.095V833.86H803.333V836.233H806.571" stroke="black" stroke-width="2"/>
<path d="M757 728H742C740.343 728 739 729.343 739 731V737V746.5C739 748.157 740.343 749.5 742 749.5H757C758.657 749.5 760 748.157 760 746.5V731C760 729.343 758.657 728 757 728Z" stroke="black" stroke-width="3"/>
<path d="M741 736H745.5V737.75V739.5H749V743H753V746H757" stroke="black" stroke-width="2"/>
<path d="M253 606H245C243.343 606 242 607.343 242 609V611.86V617C242 618.657 243.343 620 245 620H253C254.657 620 256 618.657 256 617V609C256 607.343 254.657 606 253 606Z" stroke="black" stroke-width="3"/>
<path d="M243.333 611.209H246.333V612.349V613.488H248.667V615.767H251.333V617.721H254" stroke="black" stroke-width="2"/>
<path d="M371 555H364C362.343 555 361 556.343 361 558V560.442V565C361 566.657 362.343 568 364 568H371C372.657 568 374 566.657 374 565V558C374 556.343 372.657 555 371 555Z" stroke="black" stroke-width="3"/>
<path d="M362.238 559.837H365.024V560.895V561.953H367.19V564.07H369.667V565.884H372.143" stroke="black" stroke-width="2"/>
<path d="M587 555H580C578.343 555 577 556.343 577 558V560.442V565C577 566.657 578.343 568 580 568H587C588.657 568 590 566.657 590 565V558C590 556.343 588.657 555 587 555Z" stroke="black" stroke-width="3"/>
<path d="M578.238 559.837H581.024V560.895V561.953H583.19V564.07H585.667V565.884H588.143" stroke="black" stroke-width="2"/>
<path d="M816 393H808C806.343 393 805 394.343 805 396V398.86V404C805 405.657 806.343 407 808 407H816C817.657 407 819 405.657 819 404V396C819 394.343 817.657 393 816 393Z" stroke="black" stroke-width="3"/>
<path d="M806.333 398.209H809.333V399.349V400.488H811.667V402.767H814.333V404.721H817" stroke="black" stroke-width="2"/>
<path d="M896 364H888C886.343 364 885 365.343 885 367V369.86V375C885 376.657 886.343 378 888 378H896C897.657 378 899 376.657 899 375V367C899 365.343 897.657 364 896 364Z" stroke="black" stroke-width="3"/>
<path d="M886.333 369.209H889.333V370.349V371.488H891.667V373.767H894.333V375.721H897" stroke="black" stroke-width="2"/>
<path d="M1091 251H1076C1074.34 251 1073 252.343 1073 254V260V269.5C1073 271.157 1074.34 272.5 1076 272.5H1091C1092.66 272.5 1094 271.157 1094 269.5V254C1094 252.343 1092.66 251 1091 251Z" stroke="black" stroke-width="3"/>
<path d="M1075 259H1079.5V260.75V262.5H1083V266H1087V269H1091" stroke="black" stroke-width="2"/>
</svg>
